<svg width="64" height="64" viewBox="0 0 64 64" fill="none" xmlns="http://www.w3.org/2000/svg">
  <path
    d="M31.9949 12C27.3879 12 23.6306 15.7045 23.6306 20.2534C23.6306 24.8023 27.3884 28.5131 31.9949 28.5131C36.6019 28.5131 40.3617 24.8018 40.3617 20.2534C40.3617 15.7045 36.602 12 31.9949 12V12ZM31.9949 14.1712C35.4093 14.1712 38.1548 16.8827 38.1548 20.254C38.1548 23.6247 35.4093 26.3344 31.9949 26.3344C28.5805 26.3344 25.8375 23.6247 25.8375 20.254C25.8375 16.8833 28.581 14.1712 31.9949 14.1712ZM10.6856 18.1296C6.80419 18.1296 3.64884 21.2912 3.64884 25.1444C3.64884 28.9977 6.80419 32.1511 10.6856 32.1511C14.5669 32.1511 17.7247 28.9983 17.7247 25.1444C17.7247 21.2912 14.5669 18.1296 10.6856 18.1296ZM53.3055 18.1296C49.4241 18.1296 46.2663 21.2912 46.2663 25.1444C46.2663 28.9977 49.4241 32.1511 53.3055 32.1511C57.1869 32.1511 60.351 28.9983 60.351 25.1444C60.351 21.2912 57.1869 18.1296 53.3055 18.1296ZM10.6856 20.3089C13.3626 20.3089 15.5177 22.4572 15.5177 25.1444C15.5177 27.8317 13.3624 29.9692 10.6856 29.9692C8.00857 29.9692 5.85581 27.8317 5.85581 25.1444C5.85581 22.4572 8.00907 20.3089 10.6856 20.3089V20.3089ZM53.3055 20.3089C55.9825 20.3089 58.1441 22.4572 58.1441 25.1444C58.1441 27.8317 55.9823 29.9692 53.3055 29.9692C50.6285 29.9692 48.4733 27.8317 48.4733 25.1444C48.4733 22.4572 50.6286 20.3089 53.3055 20.3089V20.3089ZM31.9949 29.9459C24.9088 29.9459 19.1667 35.6098 19.1667 42.6075V51.9059C19.1657 52.1963 19.2819 52.4756 19.4898 52.6809C19.6977 52.8862 19.9805 53.001 20.2746 53H43.7253C44.3347 52.9976 44.8268 52.5077 44.8244 51.9059V42.6075C44.8244 35.6101 39.0803 29.9459 31.9949 29.9459ZM31.9949 32.1253C37.8976 32.1253 42.6179 36.7799 42.6179 42.6073V50.8203H21.3741V42.6073C21.3741 36.7804 26.0925 32.1253 31.9953 32.1253H31.9949ZM10.6856 33.5833C4.77793 33.5833 9.20563e-06 38.3496 9.20563e-06 44.2248V51.9057C-0.00245391 52.5074 0.489681 52.9973 1.09906 52.9997H13.5286C14.1287 52.9866 14.608 52.5026 14.608 51.91C14.608 51.3175 14.1287 50.8335 13.5286 50.8204H2.20709V44.2248C2.20709 39.5085 5.97371 35.7627 10.6857 35.7627C12.1073 35.7627 13.433 36.1047 14.604 36.7118C14.8641 36.8529 15.17 36.8845 15.4538 36.7998C15.7375 36.7157 15.9755 36.5221 16.1129 36.2628C16.2509 36.0035 16.277 35.7004 16.1863 35.4221C16.0957 35.1434 15.8952 34.9128 15.6301 34.7815C14.1512 34.0148 12.468 33.5833 10.6856 33.5833L10.6856 33.5833ZM53.3055 33.5833C51.4882 33.5833 49.7704 34.0333 48.2708 34.8281C48.0057 34.9619 47.8067 35.1954 47.7185 35.4756C47.6309 35.7563 47.6609 36.0599 47.8028 36.3182C47.9442 36.5765 48.1856 36.7672 48.4718 36.8475C48.758 36.9273 49.0649 36.8903 49.3226 36.7439C50.5103 36.1139 51.8562 35.7626 53.3055 35.7626C58.0174 35.7626 61.793 39.5085 61.793 44.2248V50.8203H50.4694C49.8694 50.8335 49.3896 51.3175 49.3896 51.91C49.3896 52.5025 49.8694 52.9866 50.4694 52.9997H62.8921C63.1862 53.0007 63.4684 52.8859 63.6768 52.6806C63.8847 52.4753 64.001 52.1961 64 51.9056V44.2247C64 38.3496 59.2131 33.5832 53.3055 33.5832L53.3055 33.5833Z" />
</svg>