<svg width="64" height="64" viewBox="0 0 64 64" fill="none" xmlns="http://www.w3.org/2000/svg">
  <path
    d="M10.3 0.984619C7.37903 0.984619 4.99146 3.34045 4.99146 6.23021V58.7544C4.99146 61.6442 7.37903 64 10.3 64H22.6576C22.9484 64.001 23.2274 63.888 23.4339 63.6847C23.6404 63.482 23.7569 63.206 23.7579 62.9179C23.7594 62.6283 23.6439 62.3499 23.4368 62.1452C23.2303 61.9405 22.9498 61.8261 22.6576 61.827H10.3C8.55119 61.827 7.18418 60.4734 7.18418 58.7544V6.2302C7.18418 4.51122 8.55119 3.15953 10.3 3.15953H45.1732C46.922 3.15953 48.2891 4.51134 48.2891 6.2302V29.529L48.2886 29.5295C48.29 29.8176 48.4065 30.0931 48.6131 30.2964C48.8191 30.4991 49.0986 30.6126 49.3893 30.6116C49.9914 30.6092 50.4793 30.1261 50.4813 29.5295V6.23069C50.4813 3.34094 48.0937 0.985104 45.1727 0.985104L10.3 0.984619ZM16.1759 10.9621C15.8847 10.9636 15.6067 11.079 15.4016 11.2837C15.197 11.4879 15.0825 11.7648 15.0834 12.0529C15.0859 12.6495 15.5734 13.1326 16.1759 13.135H39.2986C39.9006 13.1326 40.3881 12.6495 40.3906 12.0529C40.3915 11.7648 40.2775 11.4879 40.0724 11.2837C39.8678 11.079 39.5893 10.9636 39.2986 10.9621H16.1759ZM16.1759 21.9583V21.9588C15.8847 21.9597 15.6067 22.0752 15.4016 22.2799C15.197 22.4845 15.0825 22.761 15.0834 23.0491C15.0859 23.6462 15.5734 24.1293 16.1759 24.1317H39.2986C39.9006 24.1293 40.3881 23.6462 40.3906 23.0491C40.3915 22.761 40.2775 22.4845 40.0724 22.2799C39.8678 22.0752 39.5893 21.9597 39.2986 21.9588L16.1759 21.9583ZM16.1759 32.9545V32.9549C15.5734 32.9574 15.0859 33.4405 15.0834 34.037C15.0825 34.3251 15.197 34.6021 15.4016 34.8063C15.6067 35.011 15.8847 35.1264 16.1759 35.1279H39.2986C39.5893 35.1264 39.8678 35.011 40.0724 34.8063C40.2775 34.6021 40.3916 34.3251 40.3906 34.037C40.3881 33.4405 39.9006 32.9574 39.2986 32.9549L16.1759 32.9545ZM53.9173 35.1764C52.4425 35.2104 50.9825 35.7764 49.8592 36.8847L48.039 38.6798L47.6748 39.0383L46.1286 40.5642H46.1291C46.1277 40.5661 46.1262 40.5676 46.1247 40.569L33.6726 52.8596C33.5366 52.9955 33.4392 53.1647 33.3902 53.3495L30.8485 62.6291H30.848C30.7467 63.0045 30.8549 63.4051 31.1324 63.6796C31.4099 63.9542 31.8142 64.0609 32.193 63.9595L41.5959 61.4578C41.7794 61.4078 41.9468 61.3113 42.0819 61.1779L56.4562 46.998C56.4816 46.9722 56.5061 46.9456 56.5291 46.9174L58.2681 45.2009C60.5867 42.913 60.5867 39.173 58.2681 36.8846C57.1091 35.7404 55.5835 35.1763 54.0603 35.1763C54.0129 35.1763 53.9644 35.1753 53.9169 35.1763L53.9173 35.1764ZM54.0607 37.3237C55.0185 37.3237 55.9797 37.6904 56.7223 38.4228C58.2073 39.8881 58.2073 42.1944 56.7223 43.6597L53.7695 46.5796L48.4589 41.3403L49.5939 40.2199V40.2209C49.6209 40.1932 49.6468 40.1641 49.6708 40.1336L51.4054 38.4234C52.1479 37.6905 53.1029 37.3243 54.0607 37.3243L54.0607 37.3237ZM46.9063 42.8729L52.2169 48.1165L40.7476 59.4288L33.4626 61.3767L35.4283 54.2002L46.9063 42.8729ZM16.1842 48.1612C15.892 48.1602 15.6116 48.2747 15.4045 48.4793C15.198 48.684 15.0825 48.9624 15.0835 49.252C15.0849 49.5401 15.2014 49.8161 15.408 50.0188C15.614 50.2221 15.8935 50.3351 16.1842 50.3341H22.3259C22.9289 50.3331 23.4174 49.8496 23.4198 49.252C23.4208 48.9634 23.3063 48.6865 23.1012 48.4818C22.8956 48.2771 22.6166 48.1617 22.3259 48.1612L16.1842 48.1612Z" />
</svg>