<svg width="64" height="64" viewBox="0 0 64 64" fill="none" xmlns="http://www.w3.org/2000/svg">
  <path
    d="M31.471 31.3044H25.6605V26.4042H31.471V31.3044ZM40.9686 26.4042H35.158V31.3044H40.9686V26.4042ZM50.4661 31.3044V26.4042H44.6556V31.3044H50.4661ZM12.4762 34.6689H6.66563V39.5691H12.4762V34.6689ZM21.9737 34.6689H16.1627V39.5691L21.9732 39.5696L21.9737 34.6689ZM31.4713 34.6689H25.6607V39.5691H31.4713V34.6689ZM35.1573 39.5681H37.0844C38.195 38.2619 39.5046 37.133 40.9668 36.2221V34.6678H35.1567L35.1573 39.5681ZM6.66576 47.8348H12.4763V42.9346L6.66576 42.9341V47.8348ZM16.1633 47.8348H21.9733V42.9346L16.1628 42.9341L16.1633 47.8348ZM25.6609 47.8348H31.4714V42.9346H25.6609V47.8348ZM64 50.212C64 53.869 62.5243 57.3756 59.8978 59.9616C57.2712 62.5473 53.7088 64 49.9945 64C46.2797 64 42.7171 62.5473 40.0907 59.9616C37.4642 57.3759 35.9885 53.869 35.9885 50.212C35.9885 46.5555 37.4642 43.0484 40.0907 40.4628C42.7173 37.8773 46.2797 36.4244 49.9945 36.4244C53.7073 36.4283 57.2673 37.8825 59.8933 40.4672C62.5188 43.0519 63.9961 46.5565 64 50.212V50.212ZM61.4405 50.212C61.44 47.2235 60.2342 44.3576 58.0879 42.2447C55.9411 40.1313 53.0298 38.9442 49.9941 38.9447C46.9584 38.9447 44.0472 40.1318 41.9009 42.2447C39.7546 44.3581 38.5488 47.224 38.5488 50.2125C38.5488 53.2009 39.7546 56.0668 41.9009 58.1797C44.0477 60.2926 46.9589 61.4802 49.9946 61.4802C53.0289 61.4768 55.9386 60.2882 58.0844 58.1757C60.2298 56.0633 61.4371 53.1993 61.4406 50.2118L61.4405 50.212ZM54.5719 34.2509V22.753H2.55908V46.9659C2.56057 48.1637 3.04469 49.3126 3.90537 50.1595C4.76598 51.0067 5.93267 51.4833 7.14995 51.4848H33.1983C33.2637 52.3335 33.3962 53.1758 33.5936 54.0045H7.15037C5.25449 54.0025 3.43709 53.2603 2.09677 51.9408C0.755939 50.6209 0.00203175 48.8322 0 46.9659V15.3338C0.00198413 13.4674 0.755951 11.6783 2.09677 10.3588C3.43709 9.03934 5.25449 8.29716 7.15037 8.29466H8.88345V4.90969C8.88544 3.5121 9.64387 2.22201 10.8736 1.52371C12.1032 0.825429 13.6176 0.825429 14.8473 1.52371C16.0769 2.222 16.8348 3.5121 16.8369 4.90969V8.29466H40.2947V4.90969C40.2967 3.5121 41.0546 2.22201 42.2843 1.52371C43.514 0.825429 45.0283 0.825429 46.258 1.52371C47.4877 2.222 48.2461 3.5121 48.2481 4.90969V8.29466H49.9822C51.8781 8.29711 53.695 9.03934 55.0358 10.3588C56.3761 11.6783 57.13 13.4674 57.1321 15.3338V35.1901C56.3067 34.8087 55.4506 34.4947 54.5726 34.2511L54.5719 34.2509ZM42.8537 13.2007C42.8537 13.9713 43.4881 14.5958 44.2708 14.5958C45.0536 14.5958 45.6879 13.9713 45.6879 13.2007V4.91069C45.6879 4.14012 45.0535 3.5156 44.2708 3.5156C43.4881 3.5156 42.8537 4.14015 42.8537 4.91069V13.2007ZM11.4428 13.2007C11.4448 13.9703 12.0787 14.593 12.8599 14.593C13.6412 14.593 14.2752 13.9704 14.2771 13.2007V4.91069C14.2751 4.1416 13.6412 3.51897 12.8599 3.51897C12.0787 3.51897 11.4447 4.14157 11.4428 4.91069V13.2007ZM54.5718 20.234V15.3348C54.5703 14.1364 54.0862 12.988 53.2255 12.1407C52.3654 11.2935 51.1982 10.8168 49.9814 10.8158H48.2473V13.2012V13.2008C48.2453 14.5983 47.4869 15.8889 46.2572 16.5867C45.0276 17.285 43.5132 17.285 42.2835 16.5867C41.0538 15.8889 40.2959 14.5983 40.2939 13.2008V10.8158H16.8361V13.2013V13.2008C16.8341 14.5984 16.0761 15.8889 14.8465 16.5867C13.6168 17.285 12.1025 17.285 10.8728 16.5867C9.64308 15.8889 8.88468 14.5984 8.88265 13.2008V10.8159H7.14957C5.93231 10.8168 4.76569 11.2934 3.90499 12.1407C3.04438 12.9879 2.56022 14.1365 2.5587 15.3348V20.234L54.5718 20.234ZM48.4255 52.7749L44.3253 48.739L42.5152 50.5214L48.425 56.3386L58.9131 46.0137L57.1036 44.2313L48.4255 52.7749Z" />
</svg>