<svg width="64" height="64" viewBox="0 0 64 64" fill="none" xmlns="http://www.w3.org/2000/svg">
  <path fill-rule="evenodd" clip-rule="evenodd"
    d="M33.859 5.74167C32.769 4.8812 31.231 4.8812 30.1411 5.74166L4.11969 26.2849C3.68621 26.6271 3.05738 26.5531 2.71516 26.1197C2.37294 25.6862 2.44692 25.0573 2.8804 24.7151L28.9018 4.1719C30.7184 2.73778 33.2817 2.73779 35.0983 4.1719L61.1197 24.7151C61.5532 25.0573 61.6271 25.6862 61.2849 26.1197C60.9427 26.5531 60.3139 26.6271 59.8804 26.2849L33.859 5.74167Z" />
  <path fill-rule="evenodd" clip-rule="evenodd"
    d="M11 19C11.5523 19 12 19.4477 12 20V54C12 56.7614 14.2386 59 17 59H47C49.7615 59 52 56.7614 52 54V20C52 19.4477 52.4478 19 53 19C53.5523 19 54 19.4477 54 20V54C54 57.866 50.866 61 47 61H17C13.134 61 10 57.866 10 54V20C10 19.4477 10.4478 19 11 19Z" />
</svg>