<svg width="64" height="64" viewBox="0 0 64 64" fill="none" xmlns="http://www.w3.org/2000/svg">
  <path
    d="M0.78816 61.2426C0.324819 61.154 -0.00797574 60.7447 0.000145453 60.2726V9.84847C0.000145453 7.17939 2.17953 5 4.84862 5H59.1515C61.8206 5 64 7.17939 64 9.84847V42.8181C64 45.4872 61.8206 47.6666 59.1515 47.6666H16.8486L1.60655 60.9999C1.38605 61.2028 1.08369 61.2928 0.788092 61.2427L0.78816 61.2426ZM1.9394 58.1513L15.8483 45.9692L15.849 45.9699C16.0248 45.8143 16.2507 45.7284 16.4855 45.727H59.152C60.7801 45.727 62.0613 44.4466 62.0613 42.8178V9.84816C62.0613 8.22006 60.7809 6.9389 59.152 6.9389H4.84912C3.22102 6.9389 1.93986 8.21934 1.93986 9.84816L1.9394 58.1513ZM14.5456 36.9999C14.0099 36.9999 13.5756 36.5656 13.5756 36.0299C13.5756 35.4942 14.0099 35.0599 14.5456 35.0599H41.6971C42.2328 35.0599 42.667 35.4942 42.667 36.0299C42.667 36.5656 42.2328 36.9999 41.6971 36.9999H14.5456ZM14.5456 27.3029C14.0099 27.3029 13.5756 26.8687 13.5756 26.3329C13.5756 25.7972 14.0099 25.363 14.5456 25.363H49.4546C49.9903 25.363 50.4246 25.7972 50.4246 26.3329C50.4246 26.8687 49.9903 27.3029 49.4546 27.3029H14.5456ZM14.5456 17.606C14.0099 17.606 13.5756 17.1717 13.5756 16.636C13.5756 16.1003 14.0099 15.666 14.5456 15.666H49.4546C49.9903 15.666 50.4246 16.1003 50.4246 16.636C50.4246 17.1717 49.9903 17.606 49.4546 17.606H14.5456Z" />
</svg>