<svg width="64" height="64" viewBox="0 0 64 64" fill="none" xmlns="http://www.w3.org/2000/svg">
  <path
    d="M58.7039 28.3352V28.3169C58.7039 28.2925 58.6979 28.2678 58.6979 28.2435C58.6979 28.2192 58.6919 28.1945 58.6919 28.1701C58.6919 28.1578 58.686 28.1394 58.686 28.1275C58.68 28.1032 58.6736 28.0849 58.6676 28.0601C58.6617 28.0358 58.6553 28.0111 58.6433 27.9927C58.6374 27.9804 58.631 27.962 58.625 27.9501C58.619 27.9317 58.6066 27.9134 58.5943 27.8951C58.5819 27.8708 58.57 27.8524 58.5576 27.8277C58.5452 27.8153 58.5393 27.797 58.5269 27.785C58.5209 27.7791 58.5209 27.7727 58.5145 27.7667C58.5086 27.7543 58.4962 27.7484 58.4838 27.736C58.4715 27.7177 58.4531 27.6993 58.4412 27.681L58.4045 27.6443C58.3862 27.626 58.3678 27.6076 58.3435 27.5953C58.3311 27.5893 58.3252 27.5769 58.3128 27.5709L43.7802 16.7922V16.1687C43.7802 12.0849 42.3677 8.83215 39.574 6.50275C38.0028 5.18837 36.181 4.33842 34.2917 3.94735L34.2912 3.43943C34.2912 2.78522 34.0345 2.17363 33.5761 1.7152C33.1112 1.25077 32.5001 1 31.8518 1C30.5068 1 29.4124 2.09428 29.4124 3.43945V3.94099C27.5172 4.33249 25.7012 5.182 24.1301 6.49638C21.3422 8.83179 19.9238 12.0845 19.9238 16.1624V16.7859L5.38468 27.5649C5.37231 27.5709 5.36634 27.5833 5.35397 27.5956C5.33564 27.614 5.3173 27.6263 5.29896 27.6447C5.28659 27.657 5.27465 27.669 5.26228 27.6813C5.24394 27.6997 5.23158 27.718 5.21324 27.7364C5.20727 27.7487 5.1949 27.7547 5.18893 27.7671C5.18296 27.773 5.18296 27.7794 5.17656 27.7854C5.16419 27.7978 5.15822 27.8097 5.15225 27.828C5.13988 27.8524 5.12155 27.8771 5.10961 27.9014C5.10363 27.9197 5.09127 27.9381 5.0853 27.9564C5.07932 27.9688 5.07293 27.9807 5.06696 27.9991C5.05459 28.0234 5.04862 28.0481 5.04265 28.0784C5.03668 28.0967 5.03028 28.121 5.02431 28.1394C5.02431 28.1517 5.01834 28.1637 5.01834 28.182C5.01237 28.2063 5.01237 28.237 5.00597 28.2613C5.00597 28.2857 5 28.3104 5 28.3287V28.3471V61.1973V61.2157C5 61.2523 5.00597 61.289 5.01237 61.3257C5.01834 61.35 5.01834 61.3807 5.02474 61.405C5.03071 61.4357 5.04307 61.466 5.05544 61.4967C5.06781 61.5274 5.07378 61.5577 5.08615 61.5824C5.09852 61.6067 5.11046 61.6315 5.12282 61.6558C5.14116 61.6865 5.1595 61.7168 5.17784 61.7475C5.18381 61.7534 5.18381 61.7598 5.19021 61.7658C5.20258 61.7782 5.21452 61.7841 5.22091 61.7965C5.25162 61.8332 5.2883 61.8699 5.32497 61.9065C5.34331 61.9249 5.36165 61.9432 5.38596 61.9556C5.42263 61.9799 5.45931 62.0046 5.49599 62.0289C5.5203 62.0413 5.53863 62.0533 5.56337 62.0656C5.60602 62.084 5.65506 62.1023 5.70411 62.1147C5.72245 62.1206 5.74079 62.127 5.75912 62.133C5.81883 62.1334 5.88622 62.1394 5.95956 62.1394H57.751C57.8243 62.1394 57.8917 62.1334 57.9587 62.1151C57.977 62.1091 57.9953 62.1027 58.0137 62.0968C58.0627 62.0844 58.1113 62.066 58.1544 62.0477C58.1787 62.0353 58.1971 62.0234 58.2218 62.011C58.2585 61.9867 58.3011 61.9684 58.3318 61.9377C58.3502 61.9193 58.3745 61.907 58.3928 61.8886C58.4295 61.8579 58.4602 61.8212 58.4969 61.7786C58.5092 61.7662 58.5212 61.7603 58.5276 61.7479C58.5335 61.7419 58.5335 61.7355 58.5399 61.7296C58.5583 61.6989 58.5766 61.6686 58.595 61.6379C58.6073 61.6136 58.6257 61.5888 58.6316 61.5645C58.644 61.5338 58.65 61.5035 58.6623 61.4788C58.6747 61.4481 58.6866 61.4178 58.693 61.3871C58.699 61.3628 58.699 61.3321 58.7054 61.3078C58.7114 61.2711 58.7178 61.2344 58.7178 61.1977V61.1794L58.7169 28.3357L58.7039 28.3352ZM6.91903 30.2368L26.5207 44.7574L6.91903 59.2779V30.2368ZM28.1278 45.9496L31.2764 48.285C31.4474 48.4134 31.6492 48.4744 31.8449 48.4744C32.0466 48.4744 32.2484 48.4134 32.4134 48.285L35.5681 45.9496L54.84 60.219H8.86336L28.1278 45.9496ZM37.1827 44.7576L56.7843 30.2371V59.2781L37.1827 44.7576ZM31.3315 3.43956C31.3315 3.15212 31.5639 2.91969 31.8513 2.91969C32.0407 2.91969 32.1631 3.01736 32.2181 3.07237C32.3157 3.17003 32.3708 3.2984 32.3708 3.43914V3.70184C32.0223 3.68947 31.6799 3.68947 31.3315 3.70184V3.43956ZM21.8429 16.1685C21.8429 12.6834 23.0289 9.9262 25.3583 7.96953C26.8317 6.73452 28.5743 5.98852 30.3654 5.71951H30.3714C30.4571 5.71951 30.5365 5.70714 30.6158 5.68283C31.435 5.58517 32.2667 5.58517 33.0859 5.68283C33.1652 5.70117 33.245 5.71951 33.3303 5.71951H33.3363C35.1274 5.98221 36.87 6.73451 38.3434 7.96953C40.6789 9.91976 41.8588 12.6834 41.8588 16.1685V20.4481C41.8588 22.6431 42.6171 24.7892 43.9989 26.4947L46.5245 29.6067H17.1777L19.7029 26.4947C21.0846 24.7888 21.843 22.6428 21.843 20.4481L21.8429 16.1685ZM35.8252 31.5264C35.391 33.324 33.7768 34.6628 31.8514 34.6628C29.9254 34.6628 28.3053 33.3236 27.8775 31.5264H35.8252ZM19.9224 20.4482C19.9224 22.2027 19.3109 23.9211 18.2106 25.2845L15.3796 28.7756C14.9638 29.2831 14.8845 29.974 15.1655 30.5668C15.4466 31.16 16.0338 31.5268 16.688 31.5268H25.9079C26.3663 34.388 28.8548 36.583 31.8444 36.583C34.834 36.583 37.3164 34.388 37.7809 31.5268H47.0008C47.661 31.5268 48.2418 31.16 48.5232 30.5668C48.8043 29.9735 48.725 29.2891 48.3092 28.7756L45.4782 25.2845C44.3715 23.9211 43.7663 22.2032 43.7663 20.4482V19.1766L56.123 28.3291L31.8507 46.3225L7.56647 28.3356L19.9231 19.1831L19.9224 20.4482Z" />
</svg>