<svg width="64" height="64" viewBox="0 0 64 64" fill="none" xmlns="http://www.w3.org/2000/svg">
  <path
    d="M22.9009 31.4494C22.9009 33.969 23.9018 36.3851 25.6834 38.1667C27.465 39.9483 29.8811 40.9492 32.4007 40.9492C34.9203 40.9492 37.3364 39.9483 39.118 38.1667C40.8996 36.385 41.9005 33.969 41.9005 31.4494C41.9005 28.9298 40.8996 26.5137 39.118 24.7321C37.3363 22.9505 34.9203 21.9496 32.4007 21.9496C29.882 21.9526 27.4675 22.9543 25.6863 24.735C23.9056 26.5162 22.9038 28.9307 22.9009 31.4494ZM32.4007 23.8495C34.4164 23.8495 36.3495 24.6502 37.7744 26.0757C39.1998 27.5006 40.0005 29.4337 40.0005 31.4494C40.0005 33.4651 39.1998 35.3982 37.7744 36.8231C36.3495 38.2486 34.4164 39.0492 32.4007 39.0492C30.385 39.0492 28.4519 38.2486 27.0269 36.8231C25.6015 35.3982 24.8008 33.4651 24.8008 31.4494C24.803 29.4345 25.6045 27.5027 27.0294 26.0781C28.454 24.6532 30.3858 23.8516 32.4007 23.8495Z" />
  <path
    d="M16.1734 20.0214C15.5394 19.987 14.9104 19.892 14.2946 19.7372L12.954 27.5822C12.8429 28.3613 13.066 29.151 13.5677 29.7574L15.5915 31.4538V31.4534C15.8956 31.7549 16.3065 31.9241 16.7344 31.9241C17.1628 31.9241 17.5737 31.7549 17.8778 31.4534L19.8159 29.8376L19.9012 29.757V29.7574C20.4088 29.1429 20.6222 28.3371 20.4839 27.5521L18.9517 19.7903C18.3312 19.9311 17.6984 20.0121 17.0628 20.0325L18.6175 27.9093C18.6378 28.0904 18.6069 28.2736 18.528 28.4377L16.7341 29.933L14.941 28.438C14.854 28.2688 14.8154 28.0784 14.8294 27.8884L16.1734 20.0214Z" />
  <path
    d="M16.725 18.1497C18.8667 18.1497 20.9206 17.2989 22.4346 15.7845C23.9491 14.2705 24.7998 12.2166 24.7998 10.0748C24.7998 7.93309 23.9491 5.87918 22.4346 4.36518C20.9206 2.85075 18.8667 2 16.725 2C14.5832 2 12.5293 2.85074 11.0153 4.36518C9.5009 5.87918 8.65015 7.93309 8.65015 10.0748C8.65269 12.2157 9.50386 14.2683 11.0179 15.7819C12.5315 17.2959 14.5842 18.1471 16.725 18.1497V18.1497ZM16.725 3.89996C18.3629 3.89996 19.9333 4.55053 21.0911 5.70873C22.2493 6.86651 22.8999 8.43696 22.8999 10.0748C22.8999 11.7127 22.2493 13.2832 21.0911 14.4409C19.9333 15.5992 18.3629 16.2497 16.725 16.2497C15.0871 16.2497 13.5167 15.5991 12.3589 14.4409C11.2007 13.2832 10.5501 11.7127 10.5501 10.0748C10.5518 8.43783 11.2032 6.86824 12.3606 5.71046C13.5184 4.55311 15.088 3.9017 16.725 3.89996V3.89996Z" />
  <path
    d="M47.5232 20.0214C46.8892 19.987 46.2603 19.892 45.6445 19.7372L44.3038 27.5822C44.1927 28.3613 44.4158 29.151 44.9175 29.7574L46.9413 31.4538V31.4534C47.2454 31.7549 47.6564 31.9241 48.0843 31.9241C48.5126 31.9241 48.9236 31.7549 49.2276 31.4534L51.1658 29.8376L51.251 29.757V29.7574C51.7587 29.1429 51.972 28.3371 51.8337 27.5521L50.3015 19.7903C49.681 19.9311 49.0483 20.0121 48.4126 20.0325L49.9678 27.9093L49.9673 27.9089C49.9877 28.0904 49.9567 28.2736 49.8778 28.4377L48.084 29.933L46.2908 28.438C46.2039 28.2684 46.1653 28.0784 46.1793 27.8884L47.5232 20.0214Z" />
  <path
    d="M48.0753 18.1497C50.217 18.1497 52.271 17.2989 53.785 15.7845C55.2994 14.2705 56.1501 12.2166 56.1501 10.0748C56.1501 7.93309 55.2994 5.87918 53.785 4.36518C52.271 2.85075 50.217 2 48.0753 2C45.9336 2 43.8797 2.85074 42.3657 4.36518C40.8512 5.87918 40.0005 7.93309 40.0005 10.0748C40.003 12.2157 40.8542 14.2683 42.3683 15.7819C43.8818 17.2959 45.9345 18.1471 48.0753 18.1497ZM48.0753 3.89996C49.7132 3.89996 51.2836 4.55053 52.4414 5.70873C53.5996 6.86651 54.2502 8.43696 54.2502 10.0748C54.2502 11.7127 53.5996 13.2832 52.4414 14.4409C51.2836 15.5992 49.7132 16.2497 48.0753 16.2497C46.4374 16.2497 44.867 15.5991 43.7092 14.4409C42.551 13.2832 41.9004 11.7127 41.9004 10.0748C41.9021 8.43783 42.5536 6.86824 43.7109 5.71046C44.8687 4.55311 46.4383 3.9017 48.0753 3.89996V3.89996Z" />
  <path
    d="M19.7585 19.5752H22.3099C24.0895 19.5226 25.8219 20.1524 27.1527 21.3348C27.7587 21.018 28.3923 20.7571 29.0454 20.5544C27.528 18.8602 25.3999 17.838 23.1289 17.713C22.1373 18.5467 20.9922 19.1795 19.7585 19.5751V19.5752Z" />
  <path
    d="M21.8355 35.7238H5.04417C4.37367 35.6797 3.86348 35.1038 3.90083 34.4328V27.5951C3.90083 22.7226 6.74361 19.5741 11.1423 19.5741H13.6924C12.4587 19.1784 11.3136 18.5457 10.3221 17.7119C5.31212 18.0932 2.00076 21.9639 2.00076 27.5951V34.4328C1.98252 35.2594 2.29254 36.0588 2.86295 36.6572C3.43379 37.2551 4.2179 37.6029 5.04411 37.6237H22.8256C22.4367 37.0227 22.105 36.3865 21.8353 35.7237L21.8355 35.7238Z" />
  <path
    d="M42.4917 19.5752H45.0418C43.8081 19.1795 42.663 18.5467 41.6715 17.713C39.4004 17.8385 37.2722 18.8606 35.7549 20.5545C36.4084 20.7572 37.0416 21.0184 37.6477 21.3348C38.979 20.1524 40.7118 19.5227 42.4917 19.5752V19.5752Z" />
  <path
    d="M54.4792 17.7122C53.4876 18.546 52.3425 19.1787 51.1089 19.5744H53.6603C58.0586 19.5744 60.9005 22.7229 60.9005 27.5954V34.433C60.9378 35.104 60.4276 35.6799 59.7572 35.724H42.9659C42.6961 36.3869 42.3645 37.0231 41.9756 37.624H59.7571C60.5832 37.6032 61.3674 37.2555 61.9382 36.6575C62.5086 36.0591 62.8186 35.2597 62.8004 34.4331V27.5954C62.8004 21.9643 59.489 18.0931 54.4791 17.7123L54.4792 17.7122Z" />
  <path
    d="M40.8711 39.0688C40.2265 39.7847 39.4944 40.4162 38.6921 40.9492H40.4042C45.9294 40.9492 49.4999 44.4561 49.4999 49.8833V59.792C49.4757 60.4251 48.9439 60.9201 48.3107 60.8988H16.4901C15.857 60.92 15.3252 60.4251 15.301 59.792V49.8833C15.301 44.4561 18.8719 40.9492 24.3983 40.9492H26.1087C25.3067 40.4161 24.5743 39.7846 23.9302 39.0688C17.6153 39.2737 13.4011 43.5604 13.4011 49.8833V59.792C13.413 60.5999 13.7451 61.3704 14.3244 61.934C14.9033 62.4977 15.6824 62.8085 16.4902 62.7988H48.3108C49.1187 62.8085 49.8977 62.4977 50.4766 61.934C51.0559 61.3704 51.388 60.5998 51.3999 59.792V49.8833C51.3999 43.56 47.1861 39.2728 40.8712 39.0688H40.8711Z" />
  <path
    d="M31.6264 42.8199C30.9932 42.7775 30.3651 42.6816 29.748 42.5341L28.1564 52.1124V52.1128C28.0347 52.9818 28.276 53.8626 28.8231 54.5489L31.1738 56.5739C31.4982 56.9094 31.9448 57.0989 32.4113 57.0989C32.8777 57.0989 33.3244 56.9094 33.6484 56.5739L35.9148 54.6307L35.9992 54.5485V54.5489C36.5522 53.8551 36.7821 52.9581 36.6307 52.084L34.8092 42.5909C34.1879 42.7254 33.5569 42.8072 32.922 42.8361L34.763 52.4313H34.7626C34.7982 52.7108 34.7464 52.9941 34.615 53.2431L32.4113 55.1324L30.2068 53.2426C30.0681 52.9882 30.0075 52.6981 30.0325 52.4097L31.6264 42.8199Z" />
</svg>